HIERARCHY
ROOT Hips
{
  OFFSET 37.4891 98.9023 4.43251
  CHANNELS 6 Xposition Yposition Zposition Zrotation Xrotation Yrotation
  JOINT spine
  {
    OFFSET 0 8.30104 0.477351
    CHANNELS 3 Zrotation Xrotation Yrotation
    JOINT spine1
    {
      OFFSET 0 10.4565 0
      CHANNELS 3 Zrotation Xrotation Yrotation
      JOINT spine2
      {
        OFFSET 0 10.0192 0
        CHANNELS 3 Zrotation Xrotation Yrotation
        JOINT Neck
        {
          OFFSET 0 25.7235 1.22641
          CHANNELS 3 Zrotation Xrotation Yrotation
          JOINT Head
          {
            OFFSET 0 7.77175 0
            CHANNELS 3 Zrotation Xrotation Yrotation
            End Site
            {
              OFFSET 0 18.812 -6.20394
            }
          }
        }
        JOINT RightShoulder
        {
          OFFSET -4.2188 10.82 -0.587439
          CHANNELS 3 Zrotation Xrotation Yrotation
          JOINT RightArm
          {
            OFFSET 0 14.1914 0
            CHANNELS 3 Zrotation Xrotation Yrotation
            JOINT RightArmRoll
            {
              OFFSET 0 7.16408 0
              CHANNELS 3 Zrotation Xrotation Yrotation
              JOINT RightForeArm
              {
                OFFSET 0 20.8665 0
                CHANNELS 3 Zrotation Xrotation Yrotation
                JOINT RightForeArmRoll
                {
                  OFFSET 0 8.03921 0
                  CHANNELS 3 Zrotation Xrotation Yrotation
                  JOINT RightHand
                  {
                    OFFSET 0 16.133 0
                    CHANNELS 3 Zrotation Xrotation Yrotation
                    End Site
                    {
                      OFFSET 0 0 0
                    }
                  }
                }
              }
            }
          }
        }
        JOINT LeftShoulder
        {
          OFFSET 4.2188 10.82 -0.587439
          CHANNELS 3 Zrotation Xrotation Yrotation
          JOINT LeftArm
          {
            OFFSET 0 14.1914 0
            CHANNELS 3 Zrotation Xrotation Yrotation
            JOINT LeftArmRoll
            {
              OFFSET 0 7.16408 0
              CHANNELS 3 Zrotation Xrotation Yrotation
              JOINT LeftForeArm
              {
                OFFSET 0 20.8665 0
                CHANNELS 3 Zrotation Xrotation Yrotation
                JOINT LeftForeArmRoll
                {
                  OFFSET 0 8.03921 0
                  CHANNELS 3 Zrotation Xrotation Yrotation
                  JOINT LeftHand
                  {
                    OFFSET 0 16.133 0
                    CHANNELS 3 Zrotation Xrotation Yrotation
                    End Site
                    {
                      OFFSET 0 0 0
                    }
                  }
                }
              }
            }
          }
        }
      }
    }
  }
  JOINT RightUpLeg
  {
    OFFSET -7.35773 -1.34921 -1.13182
    CHANNELS 3 Zrotation Xrotation Yrotation
    JOINT RightUpLegRoll
    {
      OFFSET 0 18.9168 0
      CHANNELS 3 Zrotation Xrotation Yrotation
      JOINT RightLeg
      {
        OFFSET 0 -23.4256 0
        CHANNELS 3 Zrotation Xrotation Yrotation
        JOINT RightLegRoll
        {
          OFFSET 0 23.5023 0
          CHANNELS 3 Zrotation Xrotation Yrotation
          JOINT RightFoot
          {
            OFFSET 0 19.5617 0
            CHANNELS 3 Zrotation Xrotation Yrotation
            JOINT RightToeBase
            {
              OFFSET 0 16.3526 0
              CHANNELS 3 Zrotation Xrotation Yrotation
              End Site
              {
                OFFSET 0.00693125 7.91944 -0.912837
              }
            }
          }
        }
      }
    }
  }
  JOINT LeftUpLeg
  {
    OFFSET 7.35773 -1.34921 -1.13182
    CHANNELS 3 Zrotation Xrotation Yrotation
    JOINT LeftUpLegRoll
    {
      OFFSET 0 18.9169 0
      CHANNELS 3 Zrotation Xrotation Yrotation
      JOINT LeftLeg
      {
        OFFSET 0 23.4255 0
        CHANNELS 3 Zrotation Xrotation Yrotation
        JOINT LeftLegRoll
        {
          OFFSET 0 23.7195 0
          CHANNELS 3 Zrotation Xrotation Yrotation
          JOINT LeftFoot
          {
            OFFSET 0 19.3444 0
            CHANNELS 3 Zrotation Xrotation Yrotation
            JOINT LeftToeBase
            {
              OFFSET 0 16.3526 0
              CHANNELS 3 Zrotation Xrotation Yrotation
              End Site
              {
                OFFSET -0.0310629 7.91944 -0.912836
              }
            }
          }
        }
      }
    }
  }
}
MOTION
Frames: 10
Frame Time: 0.00208333
37.187 98.8737 3.74467 0.871043 -3.97742 0.249044 -0.0116632 -1.24433 0.0711415 -0.0258811 1.52588 0.121761 -0.0273657 3.17095 0.122274 -1.57172 24.4413 -0.366576 -0.165778 -7.24147 -0.959317 76.4656 -0.495382 -2.24651 93.566 25.5768 22.8792 1.59028e-015 0 -0 10.4821 0.0835159 -0.524396 5.44313e-006 2.64703e-006 -3.09754 8.02894 -4.95146 0.6977 -68.1624 4.24454 -1.01673 -99.7612 15.3415 -16.8165 6.45927e-006 4.00383e-006 -5.66263e-007 -9.32517 0.0715278 0.703992 1.28194e-005 2.72256e-007 3.03563 -8.02902 -4.95146 -0.697663 175.344 -2.25757 1.67553 180 7.01538e-015 178.886 175.81 4.99708 179.782 -5.27046e-007 -6.86403e-006 0.0583922 -18.7279 68.0604 19.5983 8.13649 25.2327 -3.48774 -175.596 -3.52981 0.738068 4.54188e-006 -4.6773e-006 -1.22628 -3.14874 -7.4598 0.463923 1.26356e-006 7.58204e-007 -0.0826152 17.9214 66.8624 -18.621 -8.13649 25.2327 3.48774 
37.1947 98.8708 3.74946 0.869664 -3.9756 0.252889 -0.0116632 -1.24514 0.0711441 -0.0263403 1.52342 0.121967 -0.0278313 3.16849 0.122495 -1.5669 24.4515 -0.375181 -0.16217 -7.26106 -0.965686 76.4747 -0.496345 -2.24783 93.543 25.5227 22.8324 -1.59028e-015 3.18055e-015 -3.18055e-015 10.5588 0.083788 -0.528121 5.44313e-006 2.64703e-006 -3.09718 8.02894 -4.95146 0.6977 -68.1762 4.26162 -1.0231 -99.7283 15.3286 -16.8795 6.45927e-006 4.00383e-006 -5.66263e-007 -9.29173 0.0715094 0.713536 1.28194e-005 2.72256e-007 3.03631 -8.02902 -4.95146 -0.697663 175.34 -2.26523 1.68594 180 7.01538e-015 178.886 175.797 4.98449 179.783 -5.27046e-007 -6.86403e-006 0.0583922 -18.721 68.0522 19.5908 8.13649 25.2327 -3.48774 -175.595 -3.51583 0.736501 4.54188e-006 -4.6773e-006 -1.22628 -3.14831 -7.48593 0.4636 1.26356e-006 7.58204e-007 -0.0826281 17.9279 66.871 -18.6281 -8.13649 25.2327 3.48774 
37.191 98.8717 3.74864 0.868331 -3.9736 0.256692 -0.0116632 -1.246 0.0711481 -0.0268562 1.52082 0.122146 -0.0283531 3.16589 0.122692 -1.56216 24.4616 -0.383828 -0.158653 -7.28051 -0.972142 76.4836 -0.497509 -2.24922 93.5203 25.4688 22.7868 3.18055e-015 -6.36111e-015 -3.18055e-015 10.6346 0.0840426 -0.53236 5.44313e-006 2.64703e-006 -3.09687 8.02894 -4.95146 0.6977 -68.1899 4.27864 -1.02946 -99.6965 15.3144 -16.9419 6.45927e-006 4.00383e-006 -5.66263e-007 -9.25897 0.0715028 0.723163 1.28194e-005 2.72256e-007 3.03697 -8.02902 -4.95146 -0.697663 175.336 -2.27292 1.69686 180 7.01538e-015 178.886 175.782 4.97157 179.783 -5.27046e-007 -6.86403e-006 0.0583922 -18.714 68.0439 19.5832 8.13649 25.2327 -3.48774 -175.593 -3.50161 0.734915 4.54188e-006 -4.6773e-006 -1.22628 -3.14795 -7.51234 0.463254 1.26356e-006 7.58204e-007 -0.0826312 17.9345 66.8797 -18.6353 -8.13649 25.2327 3.48774 
37.1894 98.8754 3.75523 0.867029 -3.97148 0.260467 -0.0116632 -1.24689 0.071153 -0.0274117 1.51814 0.122306 -0.0289142 3.16321 0.12287 -1.55748 24.4716 -0.392504 -0.1552 -7.29986 -0.978659 76.4924 -0.498814 -2.25065 93.4977 25.4148 22.742 -4.77083e-015 6.36111e-015 -6.36111e-015 10.71 0.0842851 -0.53696 5.44313e-006 2.64703e-006 -3.09659 8.02894 -4.95146 0.6977 -68.2034 4.29562 -1.03583 -99.6653 15.2992 -17.0041 6.45927e-006 4.00383e-006 -5.66263e-007 -9.2267 0.0715045 0.732847 1.28194e-005 2.72256e-007 3.03762 -8.02902 -4.95146 -0.697663 175.332 -2.28064 1.70814 180 7.01538e-015 178.886 175.767 4.95843 179.783 -5.27046e-007 -6.86403e-006 0.0583922 -18.7069 68.0354 19.5755 8.13649 25.2327 -3.48774 -175.591 -3.48723 0.733317 4.54188e-006 -4.6773e-006 -1.22628 -3.14764 -7.53894 0.462892 1.26356e-006 7.58204e-007 -0.0826275 17.9412 66.8885 -18.6425 -8.13649 25.2327 3.48774 
37.1947 98.8731 3.76886 0.865745 -3.96928 0.264225 -0.0116632 -1.2478 0.0711584 -0.0279898 1.5154 0.122455 -0.0294978 3.16047 0.123037 -1.55283 24.4815 -0.401197 -0.151785 -7.31916 -0.98521 76.5011 -0.5002 -2.25211 93.4751 25.3609 22.6977 -1.27222e-014 1.27222e-014 -3.18055e-015 10.785 0.0845205 -0.541766 5.44313e-006 2.64703e-006 -3.09633 8.02894 -4.95146 0.6977 -68.2169 4.31257 -1.04219 -99.6345 15.2835 -17.0661 6.45927e-006 4.00383e-006 -5.66263e-007 -9.1947 0.0715109 0.742564 1.28194e-005 2.72256e-007 3.03826 -8.02902 -4.95146 -0.697663 175.328 -2.28836 1.71963 180 7.01538e-015 178.886 175.752 4.94517 179.784 -5.27046e-007 -6.86403e-006 0.0583922 -18.6998 68.0269 19.5678 8.13649 25.2327 -3.48774 -175.59 -3.47274 0.731711 4.54188e-006 -4.6773e-006 -1.22628 -3.14735 -7.56566 0.46252 1.26356e-006 7.58204e-007 -0.0826198 17.948 66.8974 -18.6499 -8.13649 25.2327 3.48774 
37.1957 98.8714 3.77327 0.864465 -3.96707 0.267979 -0.0116632 -1.24872 0.071164 -0.0285735 1.51265 0.122601 -0.0300871 3.15772 0.123203 -1.54819 24.4914 -0.409896 -0.148384 -7.33844 -0.99177 76.5098 -0.501606 -2.25357 93.4525 25.3069 22.6535 -2.06736e-014 9.54166e-015 -1.27222e-014 10.8599 0.0847542 -0.546623 5.44313e-006 2.64703e-006 -3.09608 8.02894 -4.95146 0.6977 -68.2304 4.32951 -1.04855 -99.6039 15.2676 -17.128 6.45927e-006 4.00383e-006 -5.66263e-007 -9.16277 0.0715184 0.752289 1.28194e-005 2.72256e-007 3.03891 -8.02902 -4.95146 -0.697663 175.323 -2.29609 1.73117 180 7.01538e-015 178.886 175.737 4.93187 179.784 -5.27046e-007 -6.86403e-006 0.0583922 -18.6926 68.0184 19.5601 8.13649 25.2327 -3.48774 -175.588 -3.45824 0.730103 4.54188e-006 -4.6773e-006 -1.22628 -3.14707 -7.5924 0.462146 1.26356e-006 7.58204e-007 -0.0826112 17.9547 66.9063 -18.6572 -8.13649 25.2327 3.48774 
37.1991 98.8717 3.77473 0.863176 -3.96489 0.271741 -0.0116632 -1.24963 0.0711692 -0.0291459 1.50993 0.122753 -0.0306651 3.15499 0.123373 -1.54352 24.5013 -0.418588 -0.14497 -7.35775 -0.998314 76.5186 -0.502971 -2.25502 93.4297 25.2529 22.6092 -7.06225e-031 6.36111e-015 6.36111e-015 10.935 0.0849914 -0.551377 5.44313e-006 2.64703e-006 -3.09582 8.02894 -4.95146 0.6977 -68.2439 4.34646 -1.05492 -99.5731 15.252 -17.19 6.45927e-006 4.00383e-006 -5.66263e-007 -9.1307 0.0715236 0.761998 1.28194e-005 2.72256e-007 3.03956 -8.02902 -4.95146 -0.697663 175.319 -2.30381 1.74261 180 7.01538e-015 178.886 175.722 4.91862 179.784 -5.27046e-007 -6.86403e-006 0.0583922 -18.6855 68.01 19.5524 8.13649 25.2327 -3.48774 -175.586 -3.44378 0.728499 4.54188e-006 -4.6773e-006 -1.22628 -3.14678 -7.61909 0.461777 1.26356e-006 7.58204e-007 -0.0826045 17.9615 66.9152 -18.6646 -8.13649 25.2327 3.48774 
37.2002 98.8772 3.78255 0.861864 -3.9628 0.275524 -0.0116632 -1.25051 0.0711739 -0.02969 1.50727 0.122919 -0.0312149 3.15233 0.123556 -1.53881 24.5113 -0.427261 -0.141517 -7.37713 -1.00482 76.5274 -0.504236 -2.25644 93.4066 25.1988 22.5644 -9.54166e-015 9.54166e-015 -6.36111e-015 11.0105 0.0852373 -0.555874 5.44313e-006 2.64703e-006 -3.09553 8.02894 -4.95146 0.6977 -68.2575 4.36345 -1.06128 -99.5418 15.2371 -17.2522 6.45927e-006 4.00383e-006 -5.66263e-007 -9.09829 0.0715229 0.771665 1.28194e-005 2.72256e-007 3.04021 -8.02902 -4.95146 -0.697663 175.315 -2.31152 1.75379 180 7.01538e-015 178.886 175.707 4.90554 179.785 -5.27046e-007 -6.86403e-006 0.0583922 -18.6785 68.0016 19.5447 8.13649 25.2327 -3.48774 -175.585 -3.42944 0.726905 4.54188e-006 -4.6773e-006 -1.22628 -3.14646 -7.64564 0.46142 1.26356e-006 7.58204e-007 -0.0826028 17.9682 66.924 -18.6719 -8.13649 25.2327 3.48774 
37.1963 98.8723 3.77937 0.860515 -3.96086 0.27934 -0.0116632 -1.25135 0.0711774 -0.0301888 1.50471 0.123106 -0.0317197 3.14978 0.12376 -1.53403 24.5214 -0.435905 -0.138 -7.39662 -1.01125 76.5364 -0.50534 -2.2578 93.3832 25.1445 22.5188 -1.59028e-015 3.18055e-015 -0 11.0866 0.0854972 -0.559959 5.44313e-006 2.64703e-006 -3.0952 8.02894 -4.95146 0.6977 -68.2712 4.38049 -1.06765 -99.5099 15.2232 -17.3147 6.45927e-006 4.00383e-006 -5.66263e-007 -9.06533 0.0715128 0.781267 1.28194e-005 2.72256e-007 3.04088 -8.02902 -4.95146 -0.697663 175.311 -2.3192 1.76456 180 7.01538e-015 178.886 175.693 4.89273 179.785 -5.27046e-007 -6.86403e-006 0.0583922 -18.6716 67.9932 19.5372 8.13649 25.2327 -3.48774 -175.583 -3.41529 0.725325 4.54188e-006 -4.6773e-006 -1.22628 -3.14608 -7.67197 0.461081 1.26356e-006 7.58204e-007 -0.0826088 17.9748 66.9327 -18.679 -8.13649 25.2327 3.48774 
37.1987 98.8671 3.78643 0.859116 -3.95911 0.283201 -0.0116632 -1.25214 0.0711795 -0.0306253 1.50231 0.123323 -0.0321626 3.14737 0.123992 -1.52915 24.5317 -0.444505 -0.134393 -7.41627 -1.01759 76.5455 -0.506223 -2.2591 93.3593 25.0901 22.4721 4.77083e-015 3.18055e-015 6.36111e-015 11.1635 0.0857762 -0.563478 5.44313e-006 2.64703e-006 -3.09481 8.02894 -4.95146 0.6977 -68.285 4.3976 -1.07402 -99.4768 15.2107 -17.3778 6.45927e-006 4.00383e-006 -5.66263e-007 -9.03161 0.0714897 0.790779 1.28194e-005 2.72256e-007 3.04155 -8.02902 -4.95146 -0.697663 175.307 -2.32684 1.77476 180 7.01538e-015 178.886 175.679 4.88028 179.785 -5.27046e-007 -6.86403e-006 0.0583922 -18.6647 67.9851 19.5298 8.13649 25.2327 -3.48774 -175.581 -3.40142 0.723767 4.54188e-006 -4.6773e-006 -1.22628 -3.14563 -7.69799 0.460769 1.26356e-006 7.58204e-007 -0.0826257 17.9813 66.9412 -18.6861 -8.13649 25.2327 3.48774 
